<svg xmlns="http://www.w3.org/2000/svg" viewBox="0 0 18.167 18.163" height="18px" width="18px">
					<g transform="translate(0 0)">
						<path class="contacts_icon" d="M14.6,18.167a7.807,7.807,0,0,1-2.672-.568,20.054,20.054,0,0,1-6.742-4.617A20.052,20.052,0,0,1,.568,6.239c-.756-2-.758-3.643-.006-4.395C.671,1.736.781,1.62.895,1.5A3.568,3.568,0,0,1,3.383,0a2.984,2.984,0,0,1,2.1,1.343c2.075,2.581,1.139,3.5.057,4.568l-.192.189c-.177.177-.513,1,2.6,4.112a17.337,17.337,0,0,0,2.576,2.212c.437.283,1.216.711,1.536.392l.192-.194c1.065-1.081,1.986-2.014,4.566.06a2.977,2.977,0,0,1,1.343,2.1,3.541,3.541,0,0,1-1.5,2.49c-.119.113-.235.222-.342.33A2.384,2.384,0,0,1,14.6,18.167ZM3.311.613c-.729,0-1.389.694-1.973,1.307-.118.123-.232.244-.344.356-.56.559-.5,2.03.145,3.748a19.443,19.443,0,0,0,4.478,6.527,19.443,19.443,0,0,0,6.526,4.477c1.717.648,3.189.7,3.748.144.112-.111.231-.225.353-.341.628-.6,1.34-1.273,1.309-2.023a2.469,2.469,0,0,0-1.116-1.647c-2.151-1.728-2.751-1.117-3.748-.108l-.2.2c-.475.477-1.249.373-2.3-.312a17.913,17.913,0,0,1-2.675-2.292h0c-2.585-2.585-3.412-4.166-2.6-4.976l.195-.193c1.013-1,1.624-1.6-.1-3.749A2.477,2.477,0,0,0,3.358.615Z" transform="translate(0 -0.003)"></path>
					</g>
					<g transform="translate(9.341 0.004)">
						<path class="contacts_icon" d="M21.426,9.386a.305.305,0,0,1-.283-.42,2.568,2.568,0,0,0-3.438-3.305.305.305,0,1,1-.252-.556A3.179,3.179,0,0,1,21.709,9.2.306.306,0,0,1,21.426,9.386Z" transform="translate(-16.061 -1.883)"></path>
						<path class="contacts_icon" d="M23.381,8.619A.305.305,0,0,1,23.1,8.2,5.512,5.512,0,0,0,15.72,1.105a.306.306,0,0,1-.252-.558,6.123,6.123,0,0,1,8.2,7.881A.305.305,0,0,1,23.381,8.619Z" transform="translate(-15.289 -0.009)"></path>
					</g>
					</svg>