<svg xmlns="http://www.w3.org/2000/svg" width="21" height="21" viewBox="0 0 21 21">
  <g>
    <g>
      <path d="M2.187,0H.438A.438.438,0,0,0,0,.438v1.75a.438.438,0,0,0,.438.437h1.75a.438.438,0,0,0,.437-.438V.438A.438.438,0,0,0,2.187,0Z"></path>
    </g>
  </g>
  <g transform="translate(18.375)">
    <g>
      <path d="M450.188,0h-1.75A.438.438,0,0,0,448,.438v1.75a.438.438,0,0,0,.438.437h1.75a.438.438,0,0,0,.437-.438V.438A.438.438,0,0,0,450.188,0Z" transform="translate(-448)"></path>
    </g>
  </g>
  <g transform="translate(0 18.375)">
    <g>
      <path d="M2.187,448H.438a.438.438,0,0,0-.438.438v1.75a.438.438,0,0,0,.438.437h1.75a.438.438,0,0,0,.437-.437v-1.75A.438.438,0,0,0,2.187,448Z" transform="translate(0 -448)"></path>
    </g>
  </g>
  <g transform="translate(18.375 18.375)">
    <g>
      <path d="M450.187,448h-1.75a.438.438,0,0,0-.437.438v1.75a.438.438,0,0,0,.438.438h1.75a.438.438,0,0,0,.438-.437v-1.75A.438.438,0,0,0,450.187,448Z" transform="translate(-447.999 -448)"></path>
    </g>
  </g>
  <g transform="translate(0.875 1.75)">
    <g>
      <path d="M21.771,42.667a.438.438,0,0,0-.438.438V59.729a.438.438,0,0,0,.875,0V43.1A.438.438,0,0,0,21.771,42.667Z" transform="translate(-21.333 -42.667)"></path>
    </g>
  </g>
  <g transform="translate(1.75 0.875)">
    <g>
      <path d="M59.729,21.333H43.1a.438.438,0,0,0,0,.875H59.729a.438.438,0,0,0,0-.875Z" transform="translate(-42.666 -21.333)"></path>
    </g>
  </g>
  <g transform="translate(19.25 1.75)">
    <g>
      <path d="M469.771,42.667a.438.438,0,0,0-.437.438V59.729a.438.438,0,1,0,.875,0V43.1A.438.438,0,0,0,469.771,42.667Z" transform="translate(-469.333 -42.667)"></path>
    </g>
  </g>
  <g transform="translate(1.75 19.25)">
    <g>
      <path d="M59.729,469.333H43.1a.438.438,0,1,0,0,.875H59.729a.438.438,0,0,0,0-.875Z" transform="translate(-42.666 -469.333)"></path>
    </g>
  </g>
</svg>