<svg xmlns="http://www.w3.org/2000/svg" width="21" height="21" viewBox="0 0 21 21">
  <path d="M18.594,61.918H2.406A2.408,2.408,0,0,1,0,59.512V45.074a2.408,2.408,0,0,1,2.406-2.406H18.594A2.408,2.408,0,0,1,21,45.074V59.512A2.408,2.408,0,0,1,18.594,61.918ZM2.406,43.98a1.1,1.1,0,0,0-1.094,1.094V59.512a1.1,1.1,0,0,0,1.094,1.094H18.594a1.1,1.1,0,0,0,1.094-1.094V45.074a1.1,1.1,0,0,0-1.094-1.094Zm0,0" transform="translate(0 -40.918)"></path>
  <path d="M20.344,171.98H.656a.656.656,0,0,1,0-1.312H20.344a.656.656,0,0,1,0,1.313Zm0,0" transform="translate(0 -163.668)"></path>
  <path d="M107.324,5.25a.656.656,0,0,1-.656-.656V.656a.656.656,0,0,1,1.313,0V4.594A.656.656,0,0,1,107.324,5.25Zm0,0" transform="translate(-102.293)"></path>
  <path d="M373.988,5.25a.656.656,0,0,1-.656-.656V.656a.656.656,0,0,1,1.313,0V4.594A.656.656,0,0,1,373.988,5.25Zm0,0" transform="translate(-358.02)"></path>
</svg>