<svg xmlns="http://www.w3.org/2000/svg" viewBox="0 0 18.167 20.37" height="20px" width="18px">
					<g transform="translate(0 0)">
						<path class="contacts_icon" d="M49.086,26.2c1.717-2.848,3.887-6.851,3.887-8.909a6.294,6.294,0,0,0-12.588,0c0,2.058,2.17,6.061,3.887,8.909-2.037.154-6.672.707-6.672,2.54,0,1.8,4.706,2.627,9.084,2.627s9.084-.823,9.084-2.627C55.763,26.91,51.124,26.357,49.086,26.2Zm-7.832-8.909a5.427,5.427,0,1,1,10.855,0c0,2.615-4.166,9.175-5.429,11.1C45.416,26.469,41.254,19.909,41.254,17.294ZM46.679,30.5c-5.317,0-8.215-1.164-8.215-1.763,0-.461,1.912-1.455,6.319-1.709.827,1.334,1.455,2.278,1.538,2.39a.444.444,0,0,0,.719,0c.087-.1.711-1.056,1.538-2.39,4.407.254,6.319,1.243,6.319,1.709C54.894,29.342,52,30.5,46.679,30.5Z" transform="translate(-37.6 -11)"></path>
						<path class="contacts_icon" d="M195.579,99.24a2.74,2.74,0,1,0-2.74,2.74A2.739,2.739,0,0,0,195.579,99.24Zm-4.615,0a1.875,1.875,0,1,1,1.875,1.875A1.875,1.875,0,0,1,190.965,99.24Z" transform="translate(-183.76 -92.946)"></path>
					</g>
					</svg>