<svg xmlns="http://www.w3.org/2000/svg" viewBox="0 0 18.167 12.915" height="12px" width="18px">
					<path class="contacts_icon" d="M16.7,17.4H1.465A1.466,1.466,0,0,1,0,15.933V5.947A1.466,1.466,0,0,1,1.465,4.482H16.7a1.466,1.466,0,0,1,1.465,1.465v9.986A1.466,1.466,0,0,1,16.7,17.4ZM1.465,5.068a.88.88,0,0,0-.879.879v9.986a.88.88,0,0,0,.879.879H16.7a.88.88,0,0,0,.879-.879V5.947a.88.88,0,0,0-.879-.879Z" transform="translate(0 -4.482)"></path>
					<path class="contacts_icon" d="M9.382,12.768a1.638,1.638,0,0,1-1.076-.388L.82,5.856a.293.293,0,0,1,.385-.442l7.485,6.524a1.1,1.1,0,0,0,1.381,0l7.484-6.524a.293.293,0,0,1,.385.442l-7.484,6.523A1.636,1.636,0,0,1,9.382,12.768Z" transform="translate(-0.298 -4.838)"></path>
					</svg>