<svg xmlns="http://www.w3.org/2000/svg" width="21" height="21" viewBox="0 0 21 21">
  <g transform="translate(-15.992 -16)">
    <path d="M67.123,74a.35.35,0,0,1-.345-.411,8.411,8.411,0,0,1,6.813-6.813.35.35,0,0,1,.121.689,7.709,7.709,0,0,0-6.244,6.244A.35.35,0,0,1,67.123,74Z" transform="translate(-48.559 -48.55)"></path>
    <path d="M280.337,287.227a.35.35,0,0,1-.06-.695,7.709,7.709,0,0,0,6.244-6.244.35.35,0,0,1,.689.121,8.411,8.411,0,0,1-6.813,6.813A.351.351,0,0,1,280.337,287.227Z" transform="translate(-252.445 -252.449)"></path>
    <ellipse cx="0.35" cy="0.35" rx="0.35" ry="0.35" transform="translate(18.092 26.15)"></ellipse>
    <ellipse cx="0.35" cy="0.35" rx="0.35" ry="0.35" transform="translate(26.142 18.1)"></ellipse>
    <ellipse cx="0.35" cy="0.35" rx="0.35" ry="0.35" transform="translate(34.192 26.15)"></ellipse>
    <ellipse cx="0.35" cy="0.35" rx="0.35" ry="0.35" transform="translate(26.142 34.2)"></ellipse>
    <path d="M26.492,37a10.5,10.5,0,1,1,7.424-3.075A10.5,10.5,0,0,1,26.492,37Zm0-20.3a9.8,9.8,0,1,0,6.93,2.87A9.8,9.8,0,0,0,26.492,16.7Z"></path>
    <path d="M211.85,173.6a.35.35,0,0,0,0-.7H209.4v-.7h2.1a2.1,2.1,0,0,0,0-4.2h-2.45a.35.35,0,0,0-.35.35v3.15h-.35a.35.35,0,0,0,0,.7h.35v.7h-.35a.35.35,0,0,0,0,.7h.35v2.45a.35.35,0,1,0,.7,0V173.6Zm1.05-3.5a1.4,1.4,0,0,1-1.4,1.4h-2.1v-2.8h2.1A1.4,1.4,0,0,1,212.9,170.1Z" transform="translate(-183.608 -145.35)"></path>
  </g>
</svg>