<svg xmlns="http://www.w3.org/2000/svg" width="21" height="21" viewBox="0 0 21 21">
  <g transform="translate(0)">
    <g transform="translate(4.098)">
      <g>
        <path d="M116.456,1.841a.358.358,0,0,0,.358-.358V.358A.358.358,0,0,0,116.456,0H100.27a.358.358,0,0,0-.358.358V16.544a.358.358,0,0,0,.358.358h16.187a.358.358,0,0,0,.358-.358V2.676a.358.358,0,1,0-.715,0V8.8h-1.421a.358.358,0,0,0,0,.715H116.1v6.667h-10.22V14.456a.358.358,0,1,0-.715,0v1.731h-4.536V.715h4.536V11.881a.358.358,0,1,0,.715,0V9.52h6.367a.358.358,0,0,0,0-.715h-6.367V.715H116.1v.768A.358.358,0,0,0,116.456,1.841Z" transform="translate(-99.912)"></path>
      </g>
    </g>
    <g transform="translate(0)">
      <g transform="translate(0)">
        <path d="M3.022,2.064,1.842.169a.358.358,0,0,0-.607,0l-1.18,1.9a.358.358,0,0,0,.3.547h.823v1.5a.358.358,0,1,0,.715,0v-1.5h.823a.358.358,0,0,0,.3-.547ZM1,1.9l.536-.861.536.861Z" transform="translate(0)"></path>
      </g>
    </g>
    <g transform="translate(0 4.703)">
      <g transform="translate(0)">
        <path d="M3.031,124.435a.358.358,0,0,0-.313-.184H1.9v-9.23a.358.358,0,0,0-.715,0v9.23H.358a.358.358,0,0,0-.3.547l1.18,1.9a.358.358,0,0,0,.607,0l1.18-1.9A.357.357,0,0,0,3.031,124.435Zm-1.493,1.393L1,124.966H2.074Z" transform="translate(0 -114.663)"></path>
      </g>
    </g>
    <g transform="translate(4.098 17.924)">
      <g>
        <path d="M116.645,438.239l-1.9-1.18a.358.358,0,0,0-.547.3v.823h-11.68v-.823a.358.358,0,0,0-.547-.3l-1.9,1.18a.358.358,0,0,0,0,.607l1.9,1.18a.358.358,0,0,0,.547-.3V438.9H114.2v.823a.358.358,0,0,0,.547.3l1.9-1.18a.358.358,0,0,0,0-.607Zm-14.838.84-.861-.536.861-.536Zm13.111,0v-1.072l.861.536Z" transform="translate(-99.912 -437.005)"></path>
      </g>
    </g>
  </g>
</svg>