<svg xmlns="http://www.w3.org/2000/svg" width="111.203" height="30.556" viewBox="0 0 111.203 30.556">
		<g transform="translate(3661 2352.556)">
			<g transform="translate(-3661 -2352.556)">
			<g transform="translate(0)">
				<path d="M-14.49-38.2v17.951h3.539v-5.9H-4A6.017,6.017,0,0,0,.361-27.888a5.766,5.766,0,0,0,1.769-4.282A5.766,5.766,0,0,0,.361-36.453,6.017,6.017,0,0,0-4-38.2Zm3.539,8.744v-5.436H-4a2.588,2.588,0,0,1,2.616,2.718A2.6,2.6,0,0,1-4-29.453ZM36.7-38.2l-5.129,8.488L26.42-38.2H22.779v17.951h3.539V-31.863l5.052,8.309h.41l5.052-8.334v11.642h3.513V-38.2ZM58.782-22.58A9.016,9.016,0,0,0,61.5-29.222a8.918,8.918,0,0,0-2.718-6.616,9,9,0,0,0-6.616-2.718,9,9,0,0,0-6.616,2.718,8.994,8.994,0,0,0-2.693,6.616A9.093,9.093,0,0,0,45.55-22.58a9.076,9.076,0,0,0,6.616,2.693A9.076,9.076,0,0,0,58.782-22.58Zm-10.745-2.41a5.739,5.739,0,0,1-1.667-4.231,5.739,5.739,0,0,1,1.667-4.231,5.627,5.627,0,0,1,4.129-1.667,5.627,5.627,0,0,1,4.129,1.667,5.739,5.739,0,0,1,1.667,4.231,5.739,5.739,0,0,1-1.667,4.231,5.605,5.605,0,0,1-4.129,1.641A5.605,5.605,0,0,1,48.038-24.991Zm27.106-6.078H67.527V-38.2H63.988v17.951h3.539v-7.437h7.617v7.437h3.513V-38.2H75.144ZM81.607-38.2v3.385h5.771v14.566h3.539V-34.812h5.8V-38.2Z" transform="translate(14.49 38.556)" fill="#212121"></path>
			</g>
			<path d="M0,18.118v-3.4H13.917v3.4Zm.094-7.6v-3.4H13.442v3.4Zm0-7.123V0H13.917V3.4Z" transform="translate(19.305 0.364)" fill="#6a46ff"></path>
			</g>
			<path d="M.891,0V-6.3H1.6v3.762L5.22-6.3h.918l-2.7,2.754L6.255,0H5.364L2.943-3.051,1.6-1.692V0Zm9.72,0V-6.3h2.682a2.2,2.2,0,0,1,1.647.558,1.429,1.429,0,0,1,.4,1.026,1.491,1.491,0,0,1-1,1.458q1.35.405,1.35,1.539a1.481,1.481,0,0,1-.621,1.26A2.74,2.74,0,0,1,13.41,0Zm.7-.639h2.115a1.892,1.892,0,0,0,1.134-.3.982.982,0,0,0,.414-.842.9.9,0,0,0-.427-.8A2.29,2.29,0,0,0,13.3-2.862H11.313Zm0-2.853h1.863a1.713,1.713,0,0,0,1.053-.3,1,1,0,0,0,.4-.846.89.89,0,0,0-.365-.752,1.685,1.685,0,0,0-1.031-.274H11.313ZM19.818,0l2.871-6.345h.666L26.226,0h-.765l-.738-1.665H21.294L20.547,0Zm1.755-2.3h2.871L23.013-5.517ZM30.717,0V-6.3h2.358a2.576,2.576,0,0,1,1.719.54,1.83,1.83,0,0,1,.639,1.476,1.8,1.8,0,0,1-.707,1.521,2.827,2.827,0,0,1-1.768.54h-1.53V0Zm.711-2.871h1.557a1.935,1.935,0,0,0,1.256-.383,1.247,1.247,0,0,0,.472-1.021,1.21,1.21,0,0,0-.454-1.013,1.958,1.958,0,0,0-1.237-.355H31.428ZM41.643,0V-5.652H39.528V-6.3h4.95v.648H42.363V0Zm7.416,0V-6.3h.711v5.229L53.532-6.3h.675V0h-.7V-5.229L49.752,0ZM59.238,0V-6.3H61.6a2.576,2.576,0,0,1,1.719.54,1.83,1.83,0,0,1,.639,1.476,1.8,1.8,0,0,1-.707,1.521,2.827,2.827,0,0,1-1.769.54h-1.53V0Zm.711-2.871h1.557a1.935,1.935,0,0,0,1.256-.383,1.247,1.247,0,0,0,.472-1.021,1.21,1.21,0,0,0-.455-1.013,1.958,1.958,0,0,0-1.237-.355H59.949Z" transform="translate(-3638 -2322)" fill="#8e8e93"></path>
		</g>
	</svg>